<svg xmlns:xlink="http://www.w3.org/1999/xlink" xmlns="http://www.w3.org/2000/svg" viewBox="0 0 24 24" focusable="false" class="chakra-icon css-chnskb" width="75"  height="75" ><path fill="currentColor" d="M6 12.99a4 4 0 1 1 0 8 4 4 0 0 1 0-8Zm12 0a4 4 0 1 1 0 8 4 4 0 0 1 0-8ZM6 14.5a2.5 2.5 0 1 0 0 5 2.5 2.5 0 0 0 0-5Zm12 0a2.5 2.5 0 1 0 0 5 2.5 2.5 0 0 0 0-5Zm-6.38-8.75h.07c.66 0 1.02.59 1.02.59l1.65 2.68h2.5c.83 0 .83 1.08 0 1.08h-2.9c-.2 0-.4-.08-.56-.28L12.35 8.2l-2.01 2 2 .99c.77.37.66 1.04.66 1.04v4.25c0 .48-.4.87-.87.87a.87.87 0 0 1-.87-.87v-3.4l-3.37-1.8a1.27 1.27 0 0 1-.33-1.96l3.18-3.19c.31-.35.72-.38.88-.38ZM14 3a1.5 1.5 0 1 1 0 3 1.5 1.5 0 0 1 0-3Z"></path></svg>