<svg xmlns:xlink="http://www.w3.org/1999/xlink" xmlns="http://www.w3.org/2000/svg" viewBox="0 0 24 24" focusable="false" class="chakra-icon css-chnskb" width="75"  height="75" ><path fill="currentColor" d="m18.64 19.75 1.11-1.1L5.11 4 4 5.1l4.14 4.15H4.5a.5.5 0 0 0-.5.5V14c0 .28.22.5.5.5h2.99l3.53 3.54c.32.31.86.09.86-.36v-4.7l3.73 3.73c-.63.47-1.29.81-1.97 1.03v1.8a7.69 7.69 0 0 0 3.2-1.6l1.8 1.81Zm.2-4.22c.6-1.15.91-2.37.91-3.65 0-1.86-.58-3.5-1.74-4.93a7.81 7.81 0 0 0-4.37-2.74V6a6.05 6.05 0 0 1 3.12 2.2 6.03 6.03 0 0 1 .78 5.97l1.3 1.35Zm-6.96-6.98V6.07a.5.5 0 0 0-.86-.36l-1 1 1.86 1.84Zm3.9 3.86a3.8 3.8 0 0 0-.56-2.63 3.9 3.9 0 0 0-1.58-1.43v1.93l2.13 2.13Z"></path></svg>