<svg xmlns:xlink="http://www.w3.org/1999/xlink" xmlns="http://www.w3.org/2000/svg" viewBox="0 0 24 24" focusable="false" class="chakra-icon css-chnskb" width="75"  height="75" ><path fill="currentColor" d="M5.53 5.23a1.62 1.62 0 1 0 0-3.23 1.62 1.62 0 0 0 0 3.23ZM12.5 2h-1v20h1V2ZM5.33 21.11v-5.63h.46v5.66a.76.76 0 0 0 1.51 0v-5.66h2.02l-2.2-7.57h.38l1.27 4.24c.3.99 1.56.56 1.28-.43L8.67 7.08A2.22 2.22 0 0 0 6.65 5.6H4.42a2.15 2.15 0 0 0-1.97 1.47l-1.41 4.64c-.28 1.01.98 1.39 1.29.46L3.62 7.9h.32L1.8 15.48h2.02v5.63a.76.76 0 0 0 1.51 0Zm11.74-15.4a2.07 2.07 0 0 0-2.04 2.1v5.05a.7.7 0 0 0 1 .77.7.7 0 0 0 .39-.77V8.29h.35V20.9a.93.93 0 1 0 1.84 0v-7.4h.33v7.4a.93.93 0 1 0 1.87 0V8.3h.33v4.52a.7.7 0 1 0 1.39 0V7.76a2.1 2.1 0 0 0-2.07-2.15l-3.39.1Zm2.6-.74a1.62 1.62 0 1 1-1.76-2.71 1.62 1.62 0 0 1 1.76 2.71Z"></path></svg>