<svg xmlns:xlink="http://www.w3.org/1999/xlink" xmlns="http://www.w3.org/2000/svg" viewBox="0 0 24 24" focusable="false" class="chakra-icon css-chnskb" width="75"  height="75" ><path fill="currentColor" d="M11 4a2 2 0 1 1-4 0 2 2 0 0 1 4 0ZM6.95 9.3a7 7 0 1 0 9.24 10.4l-.74-1.47a5.5 5.5 0 1 1-8.24-7.21l-.26-1.73Zm3.29-1.49a1.25 1.25 0 0 0-2.48.38l.93 6c.1.61.62 1.06 1.23 1.06h5.19l2.44 4.69a.9.9 0 0 0 1.28.31l1.66-1.09a.9.9 0 1 0-.98-1.5l-.86.56-2.43-4.72a1.5 1.5 0 0 0-.73-.65c-.15-.07-.32-.1-.49-.1h-4l-.31-2h2.81a.75.75 0 0 0 0-1.5h-3.04l-.22-1.44Z"></path></svg>